<?xml version="1.0" standalone="no"?><!DOCTYPE svg PUBLIC "-//W3C//DTD SVG 1.1//EN" "http://www.w3.org/Graphics/SVG/1.1/DTD/svg11.dtd"><svg t="1753174846773" class="icon" viewBox="0 0 1097 1024" version="1.1" xmlns="http://www.w3.org/2000/svg" p-id="9756" xmlns:xlink="http://www.w3.org/1999/xlink" width="214.2578125" height="200"><path d="M604.369639 634.226876a48.635796 48.635796 0 0 0-29.620297 35.032401L492.470739 835.864306 355.120324 695.807839l-5.704649-5.119557a58.143546 58.143546 0 0 0-28.30384-11.701846l-197.468647-25.597787L218.501275 483.492475l3.144871-6.947971a54.121037 54.121037 0 0 0 2.779188-29.620297l-35.983175-190.154993 195.93278 34.886127a58.728638 58.728638 0 0 0 37.665316-5.777786l175.308277-91.932626V193.871793l26.402289 191.617724 1.609004 7.533063a55.364358 55.364358 0 0 0 15.651219 25.451515l144.444659 133.327905-171.87086 79.791961a50.829893 50.829893 0 0 0-9.068931 2.706052H604.369639z m105.097203 59.75255l173.918682-80.669599 6.874835-3.8031a54.852402 54.852402 0 0 0 7.825609-86.739932l-177.721783-164.191523-32.472622-235.938466a55.73004 55.73004 0 0 0-30.863618-42.346054 58.948048 58.948048 0 0 0-53.389671 0.731365L387.885493 194.091202l-241.569979-42.85801-7.825609-0.950775a58.216683 58.216683 0 0 0-45.783472 19.015499 54.486719 54.486719 0 0 0-13.164576 46.66111l44.247604 234.183189L7.063549 659.751527l-3.144871 6.874835a54.121037 54.121037 0 0 0 4.461329 48.12384 57.485317 57.485317 0 0 0 41.687825 26.621699l243.325256 31.375574 169.237944 172.602225 5.70465 5.119558a58.509229 58.509229 0 0 0 48.708933 10.824207 56.900225 56.900225 0 0 0 38.835501-30.351662l83.229378-168.506579 255.246511 247.494038a50.829893 50.829893 0 0 0 70.357347 0 47.246202 47.246202 0 0 0 0-68.309525l-255.24651-247.567174zM967.126858 16.588829a50.46421 50.46421 0 0 0-81.91292 10.092842l-38.250409 74.233584a47.538748 47.538748 0 0 0 22.526053 63.994469 50.46421 50.46421 0 0 0 66.334839-20.917049l38.177271-74.160448a47.099929 47.099929 0 0 0-6.874834-53.243398zM1097.309892 296.848035a47.758158 47.758158 0 0 0-21.063322-40.590777 50.976166 50.976166 0 0 0-46.587974-5.48524l-79.718824 29.912843a47.538748 47.538748 0 1 0-13.164576 82.571149c13.822805 10.751071 32.545759 13.530259 49.074615 7.313654l79.718825-29.839707a48.270114 48.270114 0 0 0 31.814393-43.881922z" p-id="9757" fill="#0543b1"></path></svg>